PathFileType	4	(X/Y/Z)	/Users/itak/Documents/Research/Walk-IL/dataset/trc/00136_00007.trc
DataRate	CameraRate	NumFrames	NumMarkers	Units	OrigDataRate	OrigDataStartFrame	OrigNumFrames
100.000000	100.000000	4	53	mm	100.000000	462	740
Frame#	Time	RPSI			LPSI			L3			STRN			T10			C7			CLAV			RBAK			LBAK			LSHO			LUPA			LAEL			LAOL			LWTS			LWPS			LFRA			LIFD			LHPS			LHTS			RSHO			RUPA			RAEL			RAOL			RWTS			RWPS			RFRA			RIFD			RHTS			RHPS			RBHD			LFHD			RFHD			LBHD			LHIP			RHIP			RASI			LASI			LKNE			LTHI			LANK			LTIP			LTOE			LMT1			LMT5			LHEE			RKNE			RTHI			RANK			RTIP			RTOE			RMT1			RMT5			RHEE			
		X1	Y1	Z1	X2	Y2	Z2	X3	Y3	Z3	X4	Y4	Z4	X5	Y5	Z5	X6	Y6	Z6	X7	Y7	Z7	X8	Y8	Z8	X9	Y9	Z9	X10	Y10	Z10	X11	Y11	Z11	X12	Y12	Z12	X13	Y13	Z13	X14	Y14	Z14	X15	Y15	Z15	X16	Y16	Z16	X17	Y17	Z17	X18	Y18	Z18	X19	Y19	Z19	X20	Y20	Z20	X21	Y21	Z21	X22	Y22	Z22	X23	Y23	Z23	X24	Y24	Z24	X25	Y25	Z25	X26	Y26	Z26	X27	Y27	Z27	X28	Y28	Z28	X29	Y29	Z29	X30	Y30	Z30	X31	Y31	Z31	X32	Y32	Z32	X33	Y33	Z33	X34	Y34	Z34	X35	Y35	Z35	X36	Y36	Z36	X37	Y37	Z37	X38	Y38	Z38	X39	Y39	Z39	X40	Y40	Z40	X41	Y41	Z41	X42	Y42	Z42	X43	Y43	Z43	X44	Y44	Z44	X45	Y45	Z45	X46	Y46	Z46	X47	Y47	Z47	X48	Y48	Z48	X49	Y49	Z49	X50	Y50	Z50	X51	Y51	Z51	X52	Y52	Z52	X53	Y53	Z53	

463	4.62	221.1815032958984	1097.463500976562	-541.8572998046875	294.4444885253906	1113.06298828125	-653.58837890625	250.7299194335938	1137.24560546875	-600.7112426757812	432.86328125	1334.254760742188	-468.8175048828125	222.2629241943359	1287.325927734375	-598.3193969726562	245.5995941162109	1579.627807617188	-585.2822265625	402.127197265625	1469.271606445312	-488.6482543945312	161.8316802978516	1392.958129882812	-543.191650390625	291.2338256835938	1563.200561523438	-676.0108642578125	400.7710571289062	1553.306518554688	-692.9988403320312	414.2722473144531	1427.516479492188	-775.1062622070312	431.3000183105469	1213.751953125	-814.0458984375	347.0326232910156	1198.602416992188	-789.2855834960938	503.3662109375	947.8909912109375	-770.3596801757812	436.30419921875	929.5218505859375	-827.4267578125	446.3815002441406	1098.111938476562	-826.1961059570312	496.1261291503906	751.1629028320312	-766.7354736328125	460.6133422851562	852.8452758789062	-826.6519775390625	518.3712158203125	858.295166015625	-786.111572265625	204.2138824462891	1552.996337890625	-400.8807678222656	154.7586975097656	1478.707763671875	-358.9190673828125	124.5610504150391	1187.285400390625	-363.26416015625	173.490234375	1187.940673828125	-446.4015808105469	236.6253662109375	935.4916381835938	-303.0837707519531	157.2860107421875	924.3352661132812	-321.6490173339844	130.9773406982422	1113.048950195312	-339.7490844726562	256.80029296875	741.0538330078125	-317.4797973632812	250.6534576416016	824.541015625	-287.6404418945312	179.3497161865234	821.8629150390625	-302.6754455566406	238.6870880126953	1748.973388671875	-497.2769470214844	446.9432678222656	1810.005249023438	-467.3966369628906	356.4832153320312	1797.836547851562	-374.2783508300781	324.0631713867188	1766.507202148438	-597.4930419921875	437.8538208007812	1036.46337890625	-696.6158447265625	256.3997497558594	984.8663940429688	-383.3043212890625	352.7157592773438	1062.26416015625	-372.5609436035156	497.9112854003906	1090.966552734375	-595.4119873046875	582.1046142578125	558.998291015625	-595.9449462890625	537.8525390625	692.5758056640625	-655.1459350585938	587.8019409179688	34.4987678527832	-656.3529052734375	577.89208984375	298.8295288085938	-672.3352661132812	706.6463012695312	37.2818489074707	-452.3152160644531	627.5950317382812	41.18142700195312	-485.5671691894531	692.184814453125	35.78128433227539	-584.98779296875	495.4562072753906	35.497314453125	-662.1970825195312	259.3720092773438	492.7962341308594	-480.4684448242188	276.5179138183594	769.4408569335938	-410.8827819824219	-85.02350616455078	125.3370971679688	-662.5899658203125	169.6710205078125	385.7853088378906	-514.7784423828125	109.9914474487305	34.82748413085938	-725.993408203125	56.28978729248047	55.24553298950195	-763.0335693359375	17.42671585083008	42.05517959594727	-653.7943115234375	-115.7971572875977	178.0812683105469	-705.9735107421875	
464	4.63	230.1354522705078	1098.616943359375	-540.0737915039062	304.7794494628906	1115.023803710938	-650.5308837890625	261.107421875	1139.198974609375	-598.1450805664062	441.3452758789062	1335.671752929688	-463.3126831054688	232.9345092773438	1289.193725585938	-595.9432373046875	256.1211547851562	1581.477783203125	-582.2003784179688	411.0966186523438	1470.772216796875	-483.4089660644531	171.5548706054688	1394.933715820312	-541.6516723632812	303.1919555664062	1565.145263671875	-672.2412109375	412.8807373046875	1555.212890625	-687.4452514648438	427.8084411621094	1429.756225585938	-769.7999877929688	445.7178039550781	1216.138427734375	-809.1256713867188	361.050537109375	1200.710571289062	-785.6764526367188	518.5086669921875	950.7584838867188	-764.0490112304688	452.4513854980469	931.8093872070312	-822.1312866210938	461.5596313476562	1100.536010742188	-821.0313720703125	512.6998901367188	753.9995727539062	-760.2339477539062	477.3735656738281	855.3265380859375	-820.8751220703125	534.4186401367188	861.2899780273438	-779.4282836914062	212.2817230224609	1554.692749023438	-398.382080078125	162.0307312011719	1480.603515625	-357.1688842773438	130.0377502441406	1189.570434570312	-362.2225341796875	179.5422515869141	1190.093627929688	-444.913330078125	239.4045562744141	936.6394653320312	-301.721435546875	160.1660461425781	926.1756591796875	-321.2405090332031	135.6129913330078	1115.2568359375	-338.901611328125	258.4508361816406	742.1715087890625	-317.3243103027344	252.4366607666016	825.467041015625	-286.9236145019531	181.2547302246094	823.317138671875	-302.5601806640625	247.6422424316406	1750.40478515625	-494.3675231933594	455.3089904785156	1812.04833984375	-461.8537292480469	363.7760314941406	1799.79638671875	-369.8458557128906	334.2607421875	1768.05615234375	-593.4828491210938	449.1047058105469	1038.418334960938	-691.7266235351562	263.5744018554688	985.6929931640625	-381.2855224609375	359.23828125	1063.489501953125	-369.0052490234375	507.9892578125	1092.583984375	-589.574951171875	587.5164794921875	558.5111083984375	-594.2175903320312	545.056396484375	692.955810546875	-652.56787109375	587.99072265625	34.52165222167969	-656.3463745117188	580.626220703125	298.5763549804688	-671.6676025390625	706.964111328125	36.63035583496094	-451.70458984375	627.7677001953125	41.13141632080078	-485.5237121582031	692.5789184570312	35.58338928222656	-585.1573486328125	495.6165466308594	35.59357452392578	-662.301513671875	275.7750854492188	492.5260314941406	-472.0315551757812	286.9558715820312	770.2169799804688	-406.5252685546875	-75.87479400634766	134.6428833007812	-659.4475708007812	185.1412353515625	387.0779113769531	-507.3861083984375	112.7174301147461	34.47880554199219	-722.5298461914062	62.1697883605957	59.31540679931641	-760.5958251953125	19.85432434082031	43.49282073974609	-652.922119140625	-102.4336395263672	190.3572387695312	-701.5491943359375	
465	4.64	238.7812347412109	1099.526977539062	-538.12109375	315.0291442871094	1116.7509765625	-647.27490234375	271.0916748046875	1141.024780273438	-595.3751220703125	449.4906616210938	1336.909057617188	-457.7672424316406	243.1911010742188	1290.959716796875	-593.8349609375	266.5269775390625	1583.230102539062	-579.1036376953125	419.7844848632812	1472.101684570312	-478.0763549804688	180.9959259033203	1396.781127929688	-540.2498779296875	315.1229248046875	1567.009155273438	-668.3942260742188	424.9270629882812	1556.957397460938	-681.7011108398438	441.360107421875	1431.875610351562	-764.2903442382812	460.1755981445312	1218.409545898438	-804.0399169921875	375.0882263183594	1202.674560546875	-781.9999389648438	533.63916015625	953.53759765625	-757.4964599609375	468.657470703125	933.98193359375	-816.6170654296875	476.7791748046875	1102.848022460938	-815.6875	529.348876953125	756.7514038085938	-753.445556640625	494.2197265625	857.7059936523438	-814.846435546875	550.4891357421875	864.2094116210938	-772.4750366210938	220.031494140625	1556.221923828125	-395.9688415527344	168.9731750488281	1482.320190429688	-355.5738525390625	135.3539886474609	1191.637084960938	-361.261474609375	185.5828704833984	1191.990966796875	-443.4668273925781	242.3484191894531	937.7637329101562	-300.2925415039062	163.1719207763672	927.8923950195312	-320.7130432128906	140.2066040039062	1117.262939453125	-338.1146850585938	260.4511108398438	743.2960815429688	-316.8626098632812	254.5097198486328	826.439208984375	-286.03173828125	183.4479217529297	824.7180786132812	-302.2020568847656	256.4818115234375	1751.693725585938	-491.3869934082031	463.53564453125	1813.962768554688	-456.2369079589844	370.9297485351562	1801.642822265625	-365.3314819335938	344.3516845703125	1769.447143554688	-589.3766479492188	459.9936218261719	1040.249755859375	-686.8353881835938	270.6412658691406	986.3160400390625	-379.0979309082031	365.5287780761719	1064.453125	-365.3592224121094	517.7223510742188	1094.045532226562	-583.754150390625	592.6986694335938	557.99072265625	-592.6983032226562	551.9747314453125	693.3013305664062	-650.0626220703125	588.152099609375	34.50336837768555	-656.3673095703125	583.191162109375	298.3211975097656	-671.1083984375	707.28125	36.12565612792969	-451.2054138183594	627.9530029296875	41.12389755249023	-485.5225219726562	692.9273681640625	35.39064407348633	-585.3457641601562	495.757080078125	35.69049835205078	-662.3927001953125	292.4949035644531	492.3529663085938	-463.3697204589844	297.5035095214844	770.9157104492188	-401.971435546875	-65.68282318115234	144.2179565429688	-656.2567749023438	201.2303161621094	388.30322265625	-499.7298278808594	116.3662796020508	34.16361236572266	-717.9520263671875	69.48880767822266	63.64193725585938	-757.404541015625	22.94442367553711	45.77001953125	-651.5543212890625	-87.89936065673828	202.5401458740234	-697.1246337890625	
466	4.65	247.14013671875	1100.221435546875	-535.9825439453125	325.1534423828125	1118.24267578125	-643.833984375	280.6580505371094	1142.725708007812	-592.4107055664062	457.2942810058594	1337.998657226562	-452.2041320800781	253.0110321044922	1292.649536132812	-591.9835205078125	276.7979125976562	1584.894653320312	-575.9981689453125	428.1740112304688	1473.291137695312	-472.672607421875	190.1134338378906	1398.5146484375	-538.9676513671875	326.97705078125	1568.79248046875	-664.4783935546875	436.8619384765625	1558.556640625	-675.7972412109375	454.9005432128906	1433.882934570312	-758.580322265625	474.6994323730469	1220.568969726562	-798.7540283203125	389.1803894042969	1204.493530273438	-778.24755859375	548.7366943359375	956.2054443359375	-750.6922607421875	484.9289245605469	936.0521240234375	-810.8923950195312	492.0598449707031	1105.054809570312	-810.1380004882812	546.00439453125	759.4004516601562	-746.3909912109375	511.1274719238281	859.9898071289062	-808.5804443359375	566.5516967773438	867.0332641601562	-765.25439453125	227.4509124755859	1557.615234375	-393.6544494628906	175.5874176025391	1483.888793945312	-354.1493530273438	140.5234069824219	1193.508544921875	-360.4459228515625	191.7134552001953	1193.651123046875	-442.0857543945312	245.4087219238281	938.8627319335938	-298.7674560546875	166.2659149169922	929.4970092773438	-320.1223449707031	144.7608795166016	1119.08740234375	-337.4580993652344	262.7101440429688	744.4132690429688	-316.0183410644531	256.8035888671875	827.4550170898438	-284.894287109375	185.8580932617188	826.0821533203125	-301.6377258300781	265.2053527832031	1752.872314453125	-488.3241577148438	471.6346435546875	1815.729370117188	-450.547119140625	377.9600219726562	1803.371215820312	-360.7315368652344	354.3291015625	1770.701293945312	-585.16943359375	470.4967651367188	1041.957275390625	-681.9522094726562	277.6326293945312	986.7965087890625	-376.7081298828125	371.6752319335938	1065.23095703125	-361.6280822753906	527.0828857421875	1095.370971679688	-577.9730834960938	597.6821899414062	557.444091796875	-591.2798461914062	558.6516723632812	693.6299438476562	-647.5734252929688	588.3042602539062	34.45550537109375	-656.412353515625	585.6842041015625	298.08935546875	-670.5685424804688	707.574951171875	35.72589492797852	-450.8165893554688	628.1436767578125	41.13412857055664	-485.5559692382812	693.232666015625	35.20764541625977	-585.5377807617188	495.8955078125	35.79204559326172	-662.4902954101562	309.4230041503906	492.3546142578125	-454.5048522949219	308.1546630859375	771.6017456054688	-397.2120666503906	-54.43997573852539	153.9104461669922	-653.0927734375	217.7762756347656	389.5235900878906	-491.8727111816406	121.1595077514648	33.97893905639648	-712.115234375	78.41667175292969	68.06822204589844	-753.2774658203125	26.98647117614746	48.9759407043457	-649.5215454101562	-72.30968475341797	214.383056640625	-692.8941040039062	
